<?xml version="1.0" encoding="utf-8"?>

<!DOCTYPE svg PUBLIC "-//W3C//DTD SVG 1.1//EN" "http://www.w3.org/Graphics/SVG/1.1/DTD/svg11.dtd">
<svg version="1.1" id="Layer_1" xmlns="http://www.w3.org/2000/svg" xmlns:xlink="http://www.w3.org/1999/xlink" x="0px" y="0px"
	 viewBox="0 0 2592.473 305.804" enable-background="new 0 0 2592.473 305.804" xml:space="preserve">
<g>
	<path style="fill: #F043F0FF!important;" d="M1550.587,152.902c-83.72,64.131-75.053,134.032-44.232,109.97c-6.292-2.34-14.961-0.755-15.392-10.624
		c-0.386-8.849,6.131-17.888,14.539-18.794c34.228-3.685,32.48,49.922,0.935,53.678c-32.414,3.859-47.415-22.593-39.709-50.93
		c-15.278,6.347-28.264,15.278-43.458,18.451c-102.442,21.393-114.434-36.495-104.492-64.693
		c9.678-27.442,46.501-24.711,57.822-5.655c13.017,21.906-2.76,44.155-20.345,39.342c-12.729-3.484-11.298-22.484-6.654-23.787
		c8.693-2.441,8.059,10.009,12.848,6.474c3.328-2.454-3.431-18.253-16.879-11.895c-22.231,10.513,0.993,55.149,45.196,45.949
		c61.23-12.744,92.61-53.981,127.177-87.486c-34.567-33.505-65.947-74.742-127.177-87.486c-44.203-9.2-67.427,35.436-45.196,45.949
		c13.448,6.358,20.207-9.441,16.879-11.895c-4.789-3.534-4.155,8.915-12.848,6.474c-4.644-1.302-6.075-20.303,6.654-23.787
		c17.584-4.813,33.362,17.436,20.345,39.342c-11.321,19.056-48.144,21.787-57.822-5.655c-9.942-28.198,2.05-86.086,104.492-64.693
		c15.194,3.172,28.179,12.103,43.458,18.451c-7.705-28.338,7.296-54.79,39.709-50.93c31.545,3.756,33.293,57.363-0.935,53.678
		c-8.408-0.906-14.924-9.945-14.539-18.794c0.431-9.868,9.1-8.284,15.392-10.624C1475.534,18.87,1466.867,88.771,1550.587,152.902z
		 M1596.661,152.902c-12.06,9.18-20.308,21.663-23.4,32.929c-17.159,62.532,73.04,78.79,98.305,22.994
		c12.978-28.663-34.212-52.753-46.833-26.732c34.662,8.297,11.976,30.245,2.816,31.658c-16.15,2.491-27.905-12.795-22.688-29.756
		c10.027-32.612,52.267-34.028,69.667-17.27c47.523,45.766-31.487,120.457-94.304,92.61c-35.713-15.831-47.658-61.211-26.758-96.686
		c2.045-3.472,4.38-6.668,6.846-9.747c-2.466-3.079-4.801-6.275-6.846-9.747c-20.899-35.475-8.955-80.856,26.758-96.686
		c62.817-27.846,141.826,46.844,94.304,92.61c-17.4,16.758-59.639,15.342-69.667-17.27c-5.217-16.961,6.538-32.247,22.688-29.756
		c9.161,1.413,31.846,23.361-2.816,31.658c12.621,26.021,59.811,1.931,46.833-26.732c-25.266-55.796-115.464-39.538-98.305,22.994
		C1576.353,131.239,1584.601,143.722,1596.661,152.902z M2101.249,163.19c19.959,37.145,36.777,57.822,53.601,65.902
		C2143.758,205.972,2122.389,173.722,2101.249,163.19z M2154.85,76.711c-16.824,8.08-33.642,28.758-53.601,65.902
		C2122.389,132.082,2143.758,99.832,2154.85,76.711z M1717.97,155.324c13.329,24.88,27.382,49.258,53.67,66.655
		C1757.78,194.6,1741.838,171.844,1717.97,155.324z M1771.639,83.824c-26.288,17.397-40.341,41.775-53.67,66.655
		C1741.838,133.96,1757.78,111.204,1771.639,83.824z M2576.237,152.902c-2.19,13.334-13.276,24.045-27.013,23.987
		c-15.563-0.066,0.798,25.945-27.022,34.133c-28.911,8.508-41.635-20.963-47.459-30.226
		c-34.609,95.315-121.091,101.082-152.39,53.654c-2.322-3.518-3.957-5.706-7.975-1.094c-58.929,67.667-157.805,22.735-181.187,0.465
		c-29.413-28.017-47.379-67.158-80.917-80.919c33.539-13.761,51.505-52.902,80.917-80.919
		c23.382-22.27,122.258-67.202,181.187,0.465c4.018,4.612,5.653,2.425,7.975-1.094c31.299-47.428,117.781-41.662,152.39,53.654
		c5.824-9.264,18.548-38.735,47.459-30.226c27.82,8.189,11.459,34.199,27.022,34.133
		C2562.96,128.857,2574.047,139.568,2576.237,152.902z M1997.736,152.902c-21.559,8.033-39.065,25.708-42.342,53.041
		c-3.265,27.239,31.457,54.071,58.572,45.246c48.55-15.807,52.014-50.067,33.428-63.871c-21.412-15.902-36.648-0.998-37.316,2.536
		c2.557,2.108,5.584,0.737,8.289,1.278c20.68,4.137,8.545,36.426-16.898,30.837c-15.321-3.365-18.813-36.939,5.642-51.343
		c36.46-21.475,87.66,16.744,58.918,63.168c-29.978,48.424-106.713,60.691-133.936,0.542c-4.055-8.957-7.09-4.779-10.6-1.374
		c-55.101,53.451-150.187,25.58-199.411-38.439c-14.977-19.478-29.617-32.903-43.52-41.622c13.904-8.718,28.544-22.144,43.52-41.622
		c49.224-64.019,144.31-91.889,199.411-38.439c3.511,3.405,6.546,7.584,10.6-1.374c27.223-60.149,103.958-47.882,133.936,0.542
		c28.742,46.424-22.458,84.644-58.918,63.168c-24.455-14.404-20.963-47.977-5.642-51.343c25.443-5.589,37.578,26.7,16.898,30.837
		c-2.705,0.542-5.732-0.829-8.289,1.279c0.668,3.534,15.904,18.438,37.316,2.536c18.586-13.804,15.122-48.064-33.428-63.871
		c-27.115-8.825-61.837,18.007-58.572,45.246C1958.671,127.194,1976.177,144.869,1997.736,152.902z M1740.908,152.902
		c25.411,23.363,41.603,55.112,64.91,71.761c64.555,46.113,136.641-26.665,103.359-71.761
		c33.281-45.096-38.804-117.874-103.359-71.761C1782.511,97.79,1766.319,129.539,1740.908,152.902z M1828.875,152.902
		c-4.728,4.757-8.556,10.244-11.073,16.229c-9.53,22.664,22.128,52.101,45.051,28.266c-15.461-4.287-20.796-15.609-12.5-26.526
		c12.238-16.103,40.858-2.56,35.306,18.065c-16.713,62.072-108.42,29.656-80.206-31.156c0.772-1.665,1.61-3.291,2.508-4.879
		c-0.899-1.588-1.736-3.214-2.508-4.879c-28.214-60.812,63.493-93.228,80.206-31.156c5.552,20.625-23.068,34.168-35.306,18.065
		c-8.297-10.917-2.961-22.239,12.5-26.526c-22.923-23.834-54.581,5.603-45.051,28.266
		C1820.319,142.658,1824.147,148.144,1828.875,152.902z M2109.27,152.902c17.789,11.994,34.057,27.397,47.45,45.291
		c59.114,78.97,117.887,46.318,135.572,19.864c15.958-23.87,10.447-50.988-6.915-65.155c17.362-14.167,22.873-41.285,6.915-65.155
		c-17.685-26.454-76.458-59.106-135.572,19.864C2143.326,125.505,2127.058,140.908,2109.27,152.902z M2224.093,152.902
		c-48.052,27.973-10.9,83.565,24.044,53.097c-5.457-3.114-19.238-0.645-17.817-15.727c2.015-21.385,36.062-24.376,39.046-0.909
		c4.575,35.969-38.835,52.729-68.393,31.917c-22.761-16.025-19.784-45.791-2.095-68.378c-17.689-22.587-20.667-52.352,2.095-68.378
		c29.558-20.812,72.968-4.052,68.393,31.917c-2.985,23.467-37.031,20.477-39.046-0.909c-1.421-15.083,12.36-12.613,17.817-15.727
		C2213.193,69.337,2176.041,124.929,2224.093,152.902z M2352.718,152.902c-7.825,9.142-13.305,20.6-14.348,33.357
		c-3.009,36.796,35.082,64.397,73.016,42.964c29.706-16.785,46.075-52.45,47.764-76.32c-1.689-23.87-18.059-59.535-47.764-76.32
		c-37.934-21.433-76.024,6.168-73.016,42.964C2339.412,132.302,2344.893,143.76,2352.718,152.902z M2442.173,152.902
		c2.355,34.693-32.739,71.801-62.462,51.62c-39.393-26.748,31.877-65.873,24.307-22.685c-0.819,4.652-5.378,6.72-6.617,10.994
		c19.892,1.014,31.615-21.941,28.23-39.929c3.385-17.987-8.337-40.942-28.23-39.929c1.239,4.274,5.798,6.342,6.617,10.994
		c7.571,43.188-63.699,4.063-24.307-22.685C2409.434,81.101,2444.529,118.209,2442.173,152.902z"/>
	<path d="M1086.118,42.932c6.292,2.34,14.961,0.755,15.392,10.624c0.386,8.849-6.131,17.888-14.539,18.794
		c-34.228,3.685-32.48-49.922-0.935-53.678c32.414-3.859,47.415,22.593,39.709,50.93c15.278-6.347,28.264-15.278,43.458-18.451
		c102.442-21.393,114.434,36.495,104.492,64.693c-9.678,27.442-46.501,24.711-57.822,5.655
		c-13.017-21.906,2.76-44.155,20.345-39.342c12.729,3.484,11.298,22.484,6.654,23.787c-8.693,2.441-8.059-10.009-12.848-6.474
		c-3.328,2.454,3.431,18.253,16.879,11.895c22.231-10.513-0.993-55.149-45.196-45.949c-61.23,12.744-92.61,53.981-127.177,87.486
		c34.567,33.505,65.947,74.742,127.177,87.486c44.203,9.2,67.427-35.436,45.196-45.949c-13.448-6.358-20.207,9.441-16.879,11.895
		c4.789,3.534,4.155-8.915,12.848-6.474c4.644,1.302,6.075,20.303-6.654,23.787c-17.584,4.813-33.362-17.436-20.345-39.342
		c11.321-19.056,48.144-21.787,57.822,5.655c9.943,28.198-2.05,86.086-104.492,64.693c-15.194-3.172-28.179-12.103-43.458-18.451
		c7.705,28.338-7.296,54.79-39.709,50.93c-31.545-3.756-33.293-57.363,0.935-53.678c8.408,0.906,14.924,9.945,14.539,18.794
		c-0.431,9.868-9.1,8.284-15.392,10.624c30.821,24.062,39.488-45.839-44.232-109.97C1125.606,88.771,1116.939,18.87,1086.118,42.932
		z M1019.212,119.973c17.159-62.532-73.04-78.79-98.305-22.994c-12.978,28.663,34.212,52.753,46.833,26.732
		c-34.662-8.297-11.976-30.245-2.816-31.658c16.15-2.491,27.905,12.795,22.688,29.756c-10.027,32.612-52.267,34.028-69.666,17.27
		c-47.523-45.766,31.487-120.457,94.304-92.61c35.713,15.831,47.658,61.211,26.758,96.686c-2.045,3.472-4.38,6.668-6.846,9.747
		c2.466,3.079,4.801,6.275,6.846,9.747c20.899,35.475,8.955,80.856-26.758,96.686c-62.817,27.846-141.826-46.844-94.304-92.61
		c17.399-16.758,59.639-15.342,69.666,17.27c5.217,16.961-6.538,32.247-22.688,29.756c-9.161-1.413-31.846-23.361,2.816-31.658
		c-12.621-26.021-59.811-1.931-46.833,26.732c25.266,55.796,115.465,39.538,98.305-22.994c-3.091-11.265-11.34-23.749-23.4-32.929
		C1007.872,143.722,1016.12,131.239,1019.212,119.973z M437.623,229.093c16.824-8.08,33.642-28.758,53.601-65.902
		C470.085,173.722,448.715,205.972,437.623,229.093z M491.224,142.613c-19.959-37.145-36.777-57.822-53.601-65.902
		C448.715,99.832,470.085,132.082,491.224,142.613z M820.834,221.979c26.288-17.397,40.341-41.775,53.67-66.655
		C850.635,171.844,834.694,194.6,820.834,221.979z M874.504,150.48c-13.329-24.88-27.382-49.258-53.67-66.655
		C834.694,111.204,850.635,133.96,874.504,150.48z M43.25,128.915c15.564,0.066-0.798-25.945,27.022-34.133
		c28.911-8.508,41.635,20.963,47.46,30.226c34.609-95.315,121.091-101.082,152.39-53.654c2.322,3.518,3.957,5.706,7.975,1.094
		c58.929-67.667,157.805-22.735,181.187-0.465c29.413,28.017,47.379,67.158,80.918,80.919
		c-33.539,13.761-51.505,52.902-80.918,80.919c-23.382,22.27-122.258,67.202-181.187-0.465c-4.018-4.612-5.653-2.425-7.975,1.094
		c-31.299,47.428-117.781,41.662-152.39-53.654c-5.824,9.264-18.548,38.735-47.46,30.226c-27.82-8.189-11.459-34.199-27.022-34.133
		c-13.737,0.058-24.823-10.654-27.013-23.987C18.427,139.568,29.513,128.857,43.25,128.915z M637.079,99.861
		c3.265-27.239-31.457-54.071-58.572-45.246c-48.55,15.807-52.013,50.067-33.428,63.871c21.412,15.902,36.648,0.998,37.316-2.536
		c-2.557-2.108-5.584-0.737-8.289-1.279c-20.68-4.137-8.545-36.426,16.898-30.837c15.321,3.365,18.813,36.939-5.642,51.343
		c-36.46,21.475-87.66-16.744-58.918-63.168c29.978-48.424,106.713-60.691,133.936-0.542c4.055,8.957,7.09,4.778,10.6,1.374
		c55.101-53.451,150.187-25.58,199.411,38.439c14.977,19.478,29.617,32.903,43.52,41.622c-13.904,8.719-28.544,22.144-43.52,41.622
		c-49.224,64.019-144.31,91.889-199.411,38.439c-3.511-3.405-6.546-7.584-10.6,1.374c-27.223,60.149-103.958,47.882-133.936-0.542
		c-28.742-46.424,22.458-84.644,58.918-63.168c24.455,14.404,20.963,47.977,5.642,51.343c-25.443,5.589-37.578-26.7-16.898-30.837
		c2.705-0.542,5.732,0.829,8.289-1.278c-0.668-3.534-15.904-18.438-37.316-2.536c-18.586,13.804-15.122,48.064,33.428,63.871
		c27.115,8.825,61.837-18.007,58.572-45.246c-3.277-27.333-20.783-45.008-42.342-53.041
		C616.296,144.869,633.802,127.194,637.079,99.861z M786.656,81.141c-64.555-46.113-136.64,26.665-103.359,71.761
		c-33.281,45.096,38.804,117.874,103.359,71.761c23.307-16.649,39.499-48.398,64.91-71.761
		C826.154,129.539,809.962,97.79,786.656,81.141z M774.671,136.673c9.53-22.664-22.128-52.101-45.05-28.266
		c15.461,4.287,20.796,15.609,12.499,26.526c-12.238,16.102-40.858,2.56-35.306-18.065c16.713-62.072,108.42-29.656,80.206,31.156
		c-0.772,1.665-1.61,3.291-2.508,4.879c0.899,1.588,1.736,3.214,2.508,4.879c28.214,60.812-63.493,93.228-80.206,31.156
		c-5.552-20.625,23.068-34.168,35.306-18.065c8.297,10.917,2.961,22.239-12.499,26.526c22.923,23.834,54.581-5.603,45.05-28.266
		c-2.517-5.985-6.345-11.472-11.073-16.229C768.327,148.144,772.155,142.658,774.671,136.673z M435.753,107.611
		c-59.114-78.97-117.887-46.318-135.571-19.864c-15.959,23.87-10.447,50.988,6.915,65.155
		c-17.362,14.167-22.873,41.285-6.915,65.155c17.685,26.454,76.458,59.106,135.571-19.864c13.394-17.894,29.662-33.297,47.45-45.291
		C465.415,140.908,449.147,125.505,435.753,107.611z M344.337,99.805c5.457,3.114,19.238,0.645,17.817,15.727
		c-2.015,21.385-36.062,24.376-39.046,0.909c-4.575-35.969,38.835-52.729,68.393-31.917c22.762,16.025,19.784,45.791,2.095,68.378
		c17.689,22.587,20.666,52.352-2.095,68.378c-29.558,20.812-72.968,4.052-68.393-31.917c2.985-23.467,37.031-20.477,39.046,0.909
		c1.421,15.083-12.359,12.613-17.817,15.727c34.944,30.468,72.096-25.123,24.044-53.097
		C416.432,124.929,379.28,69.337,344.337,99.805z M254.104,119.545c3.009-36.796-35.082-64.397-73.016-42.964
		c-29.706,16.785-46.075,52.45-47.764,76.32c1.689,23.87,18.059,59.535,47.764,76.32c37.934,21.433,76.025-6.168,73.016-42.964
		c-1.043-12.757-6.523-24.214-14.348-33.357C247.58,143.76,253.061,132.302,254.104,119.545z M212.762,101.282
		c39.392,26.748-31.877,65.873-24.307,22.685c0.819-4.652,5.378-6.72,6.617-10.994c-19.892-1.014-31.615,21.941-28.23,39.929
		c-3.385,17.987,8.337,40.942,28.23,39.929c-1.239-4.274-5.798-6.342-6.617-10.994c-7.57-43.188,63.699-4.063,24.307,22.685
		c-29.723,20.181-64.817-16.927-62.462-51.62C147.945,118.209,183.039,81.101,212.762,101.282z"/>
</g>
</svg>
